<?xml version="1.0" encoding="UTF-8" standalone="no"?>
<svg
   xmlns:dc="http://purl.org/dc/elements/1.1/"
   xmlns:cc="http://creativecommons.org/ns#"
   xmlns:rdf="http://www.w3.org/1999/02/22-rdf-syntax-ns#"
   xmlns:svg="http://www.w3.org/2000/svg"
   xmlns="http://www.w3.org/2000/svg"
   xmlns:sodipodi="http://sodipodi.sourceforge.net/DTD/sodipodi-0.dtd"
   xmlns:inkscape="http://www.inkscape.org/namespaces/inkscape"
   width="41.332729mm"
   height="25.053637mm"
   viewBox="0 0 41.332729 25.053637"
   version="1.1"
   id="svg918"
   inkscape:version="1.0.1 (3bc2e813f5, 2020-09-07)"
   sodipodi:docname="SCPS_Colour_Logo.svg">
  <defs
     id="defs912" />
  <sodipodi:namedview
     id="base"
     pagecolor="#ffffff"
     bordercolor="#666666"
     borderopacity="1.0"
     inkscape:pageopacity="0.0"
     inkscape:pageshadow="2"
     inkscape:zoom="3.959798"
     inkscape:cx="82.212942"
     inkscape:cy="69.470385"
     inkscape:document-units="mm"
     inkscape:current-layer="layer1"
     inkscape:document-rotation="0"
     showgrid="false"
     inkscape:window-width="1500"
     inkscape:window-height="948"
     inkscape:window-x="-6"
     inkscape:window-y="-6"
     inkscape:window-maximized="1" />
  <metadata
     id="metadata915">
    <rdf:RDF>
      <cc:Work
         rdf:about="">
        <dc:format>image/svg+xml</dc:format>
        <dc:type
           rdf:resource="http://purl.org/dc/dcmitype/StillImage" />
        <dc:title></dc:title>
      </cc:Work>
    </rdf:RDF>
  </metadata>
  <g
     inkscape:label="Layer 1"
     inkscape:groupmode="layer"
     id="layer1"
     transform="translate(-128.25626,-137.9077)">
    <path
       style="fill:#ffffff;stroke-width:0.115455;stroke:none;stroke-opacity:1;fill-opacity:1"
       d="m 163.26388,140.59974 c 0.19948,-0.47741 0.21949,-1.14124 0.0443,-1.46864 -0.15991,-0.29878 -0.12927,-0.31595 0.33851,-0.18973 0.37144,0.10023 0.38377,0.12143 0.30891,0.53103 -0.0781,0.42745 -0.54428,1.3364 -0.75079,1.46403 -0.0605,0.0374 -0.0339,-0.11412 0.0591,-0.33669 z"
       id="path1643" />
    <path
       style="fill:#ffffff;stroke-width:0.115455;stroke:none;stroke-opacity:1;fill-opacity:1"
       d="m 135.23674,141.08244 -0.0324,-1.41432 -0.31179,-0.036 c -0.17148,-0.0198 -0.41827,0.021 -0.54841,0.0906 -0.2428,0.12995 -0.32244,0.02 -0.12742,-0.1759 0.0601,-0.0603 0.65754,-0.0934 1.32773,-0.0734 1.1544,0.0344 1.21853,0.0492 1.21853,0.28184 0,0.2292 -0.01,0.23195 -0.14942,0.0412 -0.10494,-0.14353 -0.26815,-0.19305 -0.54841,-0.16639 l -0.39899,0.0379 v 1.41444 c 0,1.26052 -0.0216,1.41443 -0.19849,1.41432 -0.17511,-1.1e-4 -0.20231,-0.16671 -0.23091,-1.41444 z"
       id="path1641" />
    <path
       id="path1637"
       style="fill:#a39161;stroke-width:0.115455;stroke:none;stroke-opacity:1;fill-opacity:1"
       d="m 134.97341,144.05539 v -0.51954 h 0.49316 c 0.41378,0 0.51429,0.0464 0.62445,0.28817 0.18503,0.40609 -0.13758,0.75092 -0.70255,0.75092 -0.41495,0 -0.41506,-1.3e-4 -0.41506,-0.51955 z m 0.80818,0 c 0,-0.27129 -0.0563,-0.35436 -0.25977,-0.38325 -0.22856,-0.0325 -0.25977,0.0136 -0.25977,0.38325 0,0.36968 0.0312,0.41572 0.25977,0.38326 0.20347,-0.0289 0.25977,-0.11196 0.25977,-0.38326 z" />
    <path
       style="fill:#ffffff;stroke-width:0.115455;stroke:none;stroke-opacity:1;fill-opacity:1"
       d="m 158.81479,145.88027 c 0.43221,-0.15447 0.46185,-0.36091 0.46004,-3.20353 -7.9e-4,-1.52774 -0.0414,-2.84006 -0.0898,-2.91628 -0.0485,-0.0762 -0.20501,-0.18181 -0.34789,-0.23467 -0.17002,-0.0629 0.11042,-0.0959 0.81144,-0.0956 0.84308,3.7e-4 1.00282,0.0246 0.75001,0.11395 -0.17667,0.0624 -0.34842,0.22186 -0.38166,0.3543 -0.0332,0.13245 -0.0446,1.39899 -0.0251,2.81453 0.0413,3.00826 -0.004,2.90224 1.24078,2.89933 0.86111,-0.002 0.96011,-0.0442 1.21988,-0.52041 l 0.18752,-0.34373 -0.0786,0.51955 c -0.0432,0.28575 -0.10167,0.55851 -0.12984,0.60613 -0.0282,0.0476 -0.89242,0.0825 -1.92055,0.0775 -1.02813,-0.005 -1.79139,-0.037 -1.69614,-0.071 z"
       id="path1635" />
    <path
       id="path1631"
       style="fill:#ffffff;stroke-width:0.115455;stroke:none;stroke-opacity:1;fill-opacity:1"
       d="m 144.26464,145.75817 c 0.43759,-0.22016 0.39001,-0.11921 1.50974,-3.20368 1.00835,-2.77769 1.16611,-3.175 1.26072,-3.175 0.0506,0 0.2095,0.29873 0.35318,0.66386 0.14368,0.36512 0.3301,0.81973 0.41428,1.01023 0.0842,0.1905 0.33073,0.83993 0.54791,1.44318 0.93104,2.58614 1.30906,3.27821 1.84843,3.38403 0.13498,0.0265 -0.1556,0.0552 -0.64573,0.0639 -0.67549,0.0119 -0.8776,-0.0196 -0.83516,-0.13019 0.0606,-0.15786 -0.58116,-2.01028 -0.77903,-2.2487 -0.16436,-0.19805 -1.86924,-0.19895 -2.02494,-0.001 -0.18324,0.23288 -0.72367,1.95467 -0.65062,2.07286 0.0367,0.0594 0.17838,0.15311 0.31476,0.20814 0.17011,0.0686 -0.0602,0.10228 -0.7334,0.10718 l -0.98137,0.007 0.40123,-0.20186 z m 3.43503,-2.94391 c -0.0902,-0.40134 -0.67874,-1.9796 -0.7792,-2.08954 -0.0795,-0.087 -0.80569,1.92044 -0.80569,2.22722 0,0.0744 0.32107,0.12209 0.82164,0.12209 0.7924,0 0.81956,-0.009 0.76325,-0.25977 z" />
    <path
       style="fill:#ffffff;stroke-width:0.115455;stroke:none;stroke-opacity:1;fill-opacity:1"
       d="m 139.66267,145.78707 c 0.23448,-0.12743 0.3143,-0.27479 0.35708,-0.65924 0.0924,-0.83016 -0.038,-5.33499 -0.15867,-5.4816 -0.0622,-0.0756 -0.2262,-0.15571 -0.36446,-0.1781 -0.13826,-0.0224 0.4697,-0.028 1.35103,-0.0124 1.47831,0.0261 1.63525,0.05 2.02637,0.30888 1.06696,0.70608 0.78231,2.39157 -0.50244,2.97508 -0.25899,0.11762 -0.65274,0.20903 -0.87499,0.20312 l -0.40409,-0.0107 0.40409,-0.0808 c 0.84857,-0.16968 1.38419,-0.74386 1.38503,-1.48474 5.9e-4,-0.47136 -0.37844,-1.23556 -0.72265,-1.45722 -0.33273,-0.21427 -1.02423,-0.33178 -1.21352,-0.20622 -0.19755,0.13104 -0.21962,5.73557 -0.0235,5.97186 0.0713,0.0859 0.24273,0.1782 0.381,0.20511 0.13826,0.0269 -0.24218,0.0539 -0.84543,0.06 -1.00945,0.0102 -1.07277,-0.002 -0.79483,-0.15302 z"
       id="path1629" />
    <path
       style="fill:#ffffff;stroke-width:0.115455;stroke:none;stroke-opacity:1;fill-opacity:1"
       d="m 165.7897,145.97252 c -0.57088,-0.14525 -0.62527,-0.22049 -0.61896,-0.85594 l 0.006,-0.59933 0.17844,0.43009 c 0.41018,0.98868 1.95985,1.07399 2.40662,0.13249 0.31911,-0.67247 0.0931,-1.16129 -0.99177,-2.14505 -1.20948,-1.09676 -1.41874,-1.43556 -1.34712,-2.18095 0.11115,-1.15672 1.1486,-1.68368 2.71774,-1.38043 0.12898,0.0249 0.22542,0.61947 0.14434,0.88989 -0.0756,0.25233 -0.10079,0.27293 -0.10841,0.0889 -0.0173,-0.41857 -0.48339,-0.74172 -1.06974,-0.74172 -0.72564,0 -1.13381,0.32746 -1.13381,0.90959 0,0.5244 0.29512,0.9478 1.14348,1.6405 0.95821,0.7824 1.30637,1.27367 1.36013,1.91923 0.0552,0.66236 -0.28734,1.34979 -0.82959,1.66508 -0.41088,0.23891 -1.35725,0.35493 -1.85729,0.22769 z"
       id="path1627" />
    <path
       style="fill:#ffffff;stroke-width:0.115455;stroke:none;stroke-opacity:1;fill-opacity:1"
       d="m 153.33069,146.00662 c -0.127,-0.0303 -0.34381,-0.0791 -0.48179,-0.10833 -0.39402,-0.0836 -0.9741,-0.63436 -1.2062,-1.14531 -0.17185,-0.37833 -0.21242,-0.7637 -0.21448,-2.03716 -0.001,-0.86381 -0.0365,-1.89579 -0.0781,-2.29329 -0.0673,-0.64383 -0.10969,-0.73709 -0.38835,-0.85425 -0.2671,-0.11231 -0.16646,-0.13149 0.68882,-0.13126 0.7638,2.1e-4 0.9451,0.0285 0.76357,0.11904 -0.22652,0.11301 -0.23956,0.22765 -0.26918,2.36682 -0.0297,2.14181 -0.0187,2.27228 0.23091,2.76084 0.38974,0.76268 0.76561,0.98812 1.64749,0.98812 0.83322,0 1.22516,-0.21299 1.61567,-0.87798 0.20213,-0.34419 0.23537,-0.64905 0.27243,-2.49854 0.0232,-1.15859 0.01,-2.23533 -0.0296,-2.39276 -0.0484,-0.19266 -0.18477,-0.31551 -0.41728,-0.37576 -0.24097,-0.0624 -0.0485,-0.0895 0.63648,-0.0895 0.54003,0 0.91695,0.019 0.83757,0.0421 -0.3707,0.10825 -0.43294,0.41169 -0.43294,2.11015 0,2.64745 -0.31901,3.65166 -1.31282,4.13275 -0.50963,0.24671 -1.43069,0.38732 -1.86219,0.28428 z"
       id="path1625" />
    <path
       style="fill:#ffffff;stroke-width:0.115455;stroke:none;stroke-opacity:1;fill-opacity:1"
       d="m 129.99879,145.97252 c -0.5749,-0.14628 -0.62492,-0.21864 -0.62492,-0.90405 0,-0.63044 0.0663,-0.766 0.15322,-0.3133 0.12672,0.6599 0.56267,0.97436 1.35083,0.97436 0.93402,0 1.44061,-0.95312 0.98001,-1.84381 -0.0943,-0.18229 -0.417,-0.5304 -0.71718,-0.77359 -1.2425,-1.00656 -1.58222,-1.55702 -1.50863,-2.44447 0.0458,-0.55173 0.10575,-0.68363 0.43648,-0.95974 0.44697,-0.37315 1.18368,-0.51857 1.88326,-0.37174 l 0.48155,0.10107 0.0169,0.57728 c 0.009,0.3175 -0.007,0.46141 -0.0366,0.3198 -0.0294,-0.14161 -0.1929,-0.36753 -0.36327,-0.50204 -0.24786,-0.19568 -0.42131,-0.23396 -0.86782,-0.19151 -0.69443,0.066 -1.02368,0.36288 -1.02368,0.92292 0,0.58081 0.15901,0.80838 1.07614,1.54014 1.07981,0.86157 1.48711,1.49717 1.41716,2.21149 -0.0621,0.63372 -0.36863,1.16869 -0.82294,1.43604 -0.39684,0.23353 -1.33597,0.34699 -1.83053,0.22115 z"
       id="path1623" />
    <path
       style="fill:#a39161;stroke-width:0.115455;stroke:none;stroke-opacity:1;fill-opacity:1"
       d="m 133.64568,147.24833 c 0,-0.0537 0.10373,-0.19143 0.23051,-0.30616 0.16232,-0.14691 0.19605,-0.25011 0.11403,-0.34894 -0.0814,-0.0981 -0.0583,-0.18839 0.0769,-0.29998 0.15046,-0.1242 0.20416,-0.1276 0.24195,-0.0153 0.0267,0.0794 0.10919,0.14268 0.18327,0.14067 0.16598,-0.005 0.7697,-0.52483 0.7697,-0.66339 0,-0.0555 -0.38321,-0.34359 -0.85156,-0.64028 -0.87049,-0.55143 -1.25221,-0.88631 -1.01027,-0.88631 0.0711,0 0.48355,0.25286 0.91667,0.56191 1.32493,0.9454 1.186,0.93416 2.13525,0.17283 1.10919,-0.8896 1.119,-0.89638 1.119,-0.77241 0,0.0583 -0.38966,0.41128 -0.86591,0.78431 -0.47625,0.37303 -0.86558,0.73431 -0.86518,0.80284 6.1e-4,0.10221 0.45564,0.44066 0.83646,0.62215 0.0477,0.0227 0.12788,-0.0699 0.17817,-0.20584 l 0.0914,-0.24719 0.21495,0.23752 c 0.1199,0.13249 0.15598,0.23751 0.0816,0.23751 -0.1896,0 -0.16519,0.29167 0.0386,0.46076 0.0945,0.0785 0.14135,0.19213 0.10399,0.25257 -0.0389,0.0629 -0.15336,0.0326 -0.26759,-0.0708 -0.2549,-0.23068 -0.51577,-0.23526 -0.42838,-0.008 0.0904,0.23567 -0.004,0.21748 -0.29925,-0.0577 -0.2102,-0.19582 -0.21824,-0.23091 -0.0529,-0.23091 0.31715,0 0.22442,-0.20255 -0.23594,-0.51538 -0.53619,-0.36434 -0.59361,-0.36366 -1.04776,0.0126 -0.33005,0.27343 -0.53971,0.73762 -0.25317,0.56053 0.15966,-0.0987 0.14538,0.0971 -0.0191,0.26153 -0.1024,0.1024 -0.16911,0.0872 -0.27934,-0.0635 -0.13478,-0.18433 -0.16393,-0.18006 -0.42132,0.0617 -0.28973,0.27218 -0.43482,0.32631 -0.43482,0.16221 z"
       id="path1621" />
    <path
       style="fill:#ffffff;stroke-width:0.115455;stroke:none;stroke-opacity:1;fill-opacity:1"
       d="m 166.20862,152.70202 c 0.063,-0.16562 0.10978,-1.07459 0.104,-2.01993 -0.009,-1.53063 -0.0337,-1.73507 -0.2228,-1.8675 -0.18453,-0.12925 -0.12858,-0.14991 0.42793,-0.15795 0.44301,-0.006 0.5822,0.0232 0.45181,0.0962 -0.16189,0.0906 -0.18817,0.36056 -0.18665,1.91811 8e-4,0.99697 0.0463,1.8829 0.10066,1.96873 0.16034,0.25304 1.28011,0.21975 1.47282,-0.0438 0.1617,-0.22115 0.20971,-0.0965 0.0865,0.22465 -0.0574,0.14945 -0.277,0.18262 -1.20943,0.18262 h -1.13933 z"
       id="path1619" />
    <path
       id="path1615"
       style="fill:#ffffff;stroke-width:0.115455;stroke:none;stroke-opacity:1;fill-opacity:1"
       d="m 161.32803,152.90668 c 0.17587,-0.11163 1.01947,-2.2342 1.43002,-3.59806 0.25953,-0.86211 0.33515,-0.79457 0.9936,0.88732 0.91948,2.34859 0.97251,2.46261 1.22922,2.64242 0.22025,0.15427 0.20513,0.1648 -0.23643,0.1648 h -0.47172 l -0.27556,-0.83704 -0.27557,-0.83705 -0.67029,-0.01 c -0.66248,-0.01 -0.67237,-0.005 -0.84706,0.40409 -0.0972,0.22762 -0.18524,0.60838 -0.19561,0.84615 -0.018,0.41373 -0.0362,0.43225 -0.42293,0.43118 -0.24878,-6.9e-4 -0.34782,-0.0368 -0.25767,-0.0941 z m 2.12669,-2.09715 c -0.0198,-0.15875 -0.12136,-0.51892 -0.22577,-0.80037 l -0.1898,-0.51173 -0.26343,0.56946 c -0.41881,0.90538 -0.35662,1.12146 0.30675,1.06563 0.36081,-0.0304 0.40404,-0.0679 0.37225,-0.32299 z" />
    <path
       id="path1611"
       style="fill:#ffffff;stroke-width:0.115455;stroke:none;stroke-opacity:1;fill-opacity:1"
       d="m 157.55542,152.45475 c 0.0492,-0.30162 0.0799,-1.25752 0.0683,-2.12422 l -0.0212,-1.57581 0.47381,-0.0649 c 1.53844,-0.21071 2.35435,0.71491 1.60437,1.82008 -0.15875,0.23393 -0.28864,0.48049 -0.28864,0.5479 0,0.15796 0.61772,0.95747 1.16851,1.5124 0.38977,0.3927 0.40612,0.43295 0.17584,0.43295 -0.37681,0 -0.68678,-0.26209 -1.30379,-1.10242 -0.51957,-0.70761 -0.58071,-0.75348 -0.96157,-0.72139 l -0.40672,0.0343 0.0188,0.79517 c 0.0123,0.52043 0.0722,0.82898 0.17318,0.89301 0.0991,0.0628 -0.0148,0.0985 -0.31803,0.0996 l -0.47238,0.002 0.0895,-0.54841 z m 1.66869,-1.6977 c 0.33296,-0.33296 0.37751,-0.93153 0.10812,-1.45249 -0.18187,-0.35169 -0.52931,-0.50458 -0.99639,-0.43847 -0.25527,0.0361 -0.27355,0.0927 -0.30544,0.94415 -0.0213,0.56839 0.0163,0.96614 0.10073,1.06796 0.21414,0.25802 0.7761,0.19573 1.09298,-0.12115 z" />
    <path
       id="path1607"
       style="fill:#ffffff;stroke-width:0.115455;stroke:none;stroke-opacity:1;fill-opacity:1"
       d="m 152.00296,152.89029 c 0.13929,-0.0879 0.18078,-0.46974 0.21201,-1.95099 0.0359,-1.7005 0.0216,-1.8589 -0.18606,-2.06655 -0.22288,-0.22288 -0.21292,-0.2246 1.11572,-0.19267 1.74705,0.042 2.29565,0.26518 2.73702,1.11348 0.20951,0.40267 0.20911,1.63039 -7.9e-4,2.03192 -0.18543,0.35495 -0.69786,0.85658 -1.07067,1.04812 -0.31482,0.16174 -3.06301,0.17808 -2.80737,0.0167 z m 2.64725,-0.20481 c 0.57681,-0.29413 0.8461,-0.72814 0.90694,-1.46174 0.0702,-0.8467 -0.0192,-1.14278 -0.50894,-1.68484 -0.45299,-0.5014 -0.94625,-0.69045 -1.80412,-0.69146 l -0.5484,-6.4e-4 v 1.8634 c 0,1.63928 0.0243,1.88186 0.20204,2.01679 0.29033,0.22039 1.28507,0.19682 1.75248,-0.0415 z" />
    <path
       style="fill:#ffffff;stroke-width:0.115455;stroke:none;stroke-opacity:1;fill-opacity:1"
       d="m 142.73773,152.92669 c 0.22919,-0.0925 0.20459,-4.03469 -0.026,-4.16373 -0.10741,-0.0601 0.0393,-0.0945 0.39742,-0.0932 0.31225,0.001 0.50239,0.0387 0.42253,0.0834 -0.0957,0.0536 -0.14262,0.34904 -0.13765,0.86677 l 0.007,0.78552 1.24114,0.0328 1.24113,0.0328 v -0.80635 c 0,-0.6415 -0.0413,-0.83291 -0.20204,-0.93626 -0.18869,-0.12133 -0.18807,-0.12552 0.009,-0.0635 0.11632,0.0366 0.32413,0.0664 0.46182,0.0664 0.24728,0 0.25033,0.0246 0.25033,2.02466 0,1.67408 0.03,2.04362 0.17318,2.13414 0.12613,0.0797 0.0477,0.11003 -0.28864,0.1115 l -0.46182,0.002 0.0365,-1.1548 0.0365,-1.1548 h -1.27758 -1.27766 v 0.97312 c 0,0.73071 0.0452,1.01831 0.18143,1.15455 0.16493,0.16493 0.13082,0.1806 -0.37523,0.17231 -0.30616,-0.005 -0.49171,-0.0353 -0.41234,-0.0674 z"
       id="path1605" />
    <path
       style="fill:#ffffff;stroke-width:0.115455;stroke:none;stroke-opacity:1;fill-opacity:1"
       d="m 139.47614,150.95395 v -2.04942 l -0.61958,0.006 c -0.47019,0.004 -0.65809,0.0583 -0.77932,0.22411 -0.16785,0.22955 -0.19817,0.15583 -0.0945,-0.22977 0.0587,-0.21824 0.15974,-0.23091 1.84202,-0.23091 1.74721,0 1.77957,0.005 1.75953,0.24665 -0.0188,0.22726 -0.0405,0.23351 -0.27553,0.0795 -0.15253,-0.0999 -0.45621,-0.15269 -0.75523,-0.13119 l -0.50011,0.036 -0.0272,1.82909 c -0.0161,1.07908 0.0211,1.91939 0.0907,2.04932 0.10484,0.19588 0.0759,0.22024 -0.26142,0.22034 l -0.37929,1.1e-4 z"
       id="path1603" />
    <path
       id="path1599"
       style="fill:#ffffff;stroke-width:0.115455;stroke:none;stroke-opacity:1;fill-opacity:1"
       d="m 134.12845,152.85888 c 0.0993,-0.0794 0.42543,-0.81972 0.72475,-1.64522 0.95573,-2.63589 1.02918,-2.78458 1.16068,-2.34958 0.0451,0.14927 0.14957,0.42726 0.23211,0.61776 0.0825,0.1905 0.28813,0.71004 0.45687,1.15454 0.63097,1.66214 0.70091,1.816 0.94936,2.08822 l 0.25426,0.2786 h -0.45631 c -0.34117,0 -0.4563,-0.0466 -0.4563,-0.18459 0,-0.16519 -0.14837,-0.55515 -0.4818,-1.26634 -0.10709,-0.22841 -0.3967,-0.26741 -1.32081,-0.17788 -0.16412,0.0159 -0.55081,1.23131 -0.46385,1.45793 0.0505,0.13169 -0.0313,0.17088 -0.35696,0.17088 -0.35735,0 -0.39468,-0.0223 -0.242,-0.14432 z m 2.11949,-1.82573 c 0.0946,-0.15311 -0.41346,-1.54146 -0.51731,-1.41355 -0.16194,0.19945 -0.48424,1.30213 -0.41388,1.41598 0.0975,0.15769 0.83342,0.15577 0.93119,-0.002 z" />
    <path
       style="fill:#ffffff;stroke-width:0.115455;stroke:none;stroke-opacity:1;fill-opacity:1"
       d="m 149.11805,153.02696 c -0.6546,-0.0227 -0.9229,-0.0692 -0.80818,-0.13997 0.13758,-0.0849 0.17945,-0.47219 0.21055,-1.94765 0.0351,-1.66416 0.0184,-1.86209 -0.17329,-2.05367 -0.20583,-0.20572 -0.17872,-0.21201 0.91354,-0.21201 h 1.12566 l -0.0133,0.34636 c -0.007,0.19417 -0.0365,0.25762 -0.066,0.1444 -0.0604,-0.23126 -0.4347,-0.35281 -0.91671,-0.29773 -0.32782,0.0375 -0.33183,0.0472 -0.36559,0.88592 l -0.0341,0.84803 0.64043,-0.0399 0.64044,-0.0398 -0.004,0.34637 c -0.003,0.29116 -0.0224,0.31416 -0.12135,0.14431 -0.0842,-0.14454 -0.26392,-0.20205 -0.63146,-0.20205 h -0.51381 v 0.91682 c 0,0.55466 0.0513,0.94853 0.1299,0.99711 0.21573,0.13332 1.00884,0.0902 1.19589,-0.065 0.14401,-0.11952 0.17512,-0.11279 0.17512,0.0379 0,0.28849 -0.32932,0.36715 -1.384,0.33058 z"
       id="path1597" />
    <path
       style="fill:#ffffff;stroke-width:0.115455;stroke:none;stroke-opacity:1;fill-opacity:1"
       d="m 130.81926,152.93416 c -0.67375,-0.24662 -1.19438,-0.80764 -1.39732,-1.50571 -0.27461,-0.94462 0.10196,-1.98149 0.90988,-2.50536 0.40102,-0.26002 0.60085,-0.30716 1.30209,-0.30716 0.4556,0 0.99072,0.0325 1.18916,0.0722 0.34393,0.0688 0.36026,0.0971 0.34929,0.60614 -0.009,0.39511 -0.0318,0.46162 -0.0893,0.25574 -0.1413,-0.5051 -0.63675,-0.76034 -1.46471,-0.75457 -0.85335,0.006 -1.25275,0.22526 -1.5804,0.86783 -0.42691,0.83722 -0.13448,2.19702 0.58723,2.7306 0.75136,0.5555 1.85762,0.61775 2.3435,0.13187 l 0.23371,-0.23371 -0.0381,0.26613 c -0.0209,0.14637 -0.16799,0.3316 -0.32674,0.41163 -0.3827,0.19292 -1.44511,0.17419 -2.01824,-0.0356 z"
       id="path1595" />
    <path
       style="fill:#ffffff;stroke-width:0.115455;stroke:none;stroke-opacity:1;fill-opacity:1"
       d="m 164.70297,161.81305 c 0.43109,-0.15407 0.46182,-0.36375 0.46182,-3.15261 0,-2.8577 -0.0296,-3.03712 -0.51956,-3.15186 -0.127,-0.0297 0.26266,-0.053 0.86591,-0.0518 0.60325,0.001 0.97981,0.0249 0.83679,0.0524 -0.46913,0.0903 -0.51157,0.36953 -0.47105,3.09966 0.0434,2.92708 0.0416,2.9211 0.9364,3.02196 0.73344,0.0827 1.27329,-0.12466 1.50284,-0.57715 l 0.18914,-0.3728 -0.058,0.40409 c -0.12419,0.86497 0.0189,0.80915 -2.0491,0.79906 -1.0276,-0.005 -1.79042,-0.037 -1.69517,-0.071 z"
       id="path1593" />
    <path
       style="fill:#ffffff;stroke-width:0.115455;stroke:none;stroke-opacity:1;fill-opacity:1"
       d="m 141.49659,161.80905 c 0.0952,-0.0363 0.20887,-0.12084 0.25249,-0.18796 0.0436,-0.0671 0.0841,-1.40253 0.0899,-2.96759 0.0112,-2.99074 0.007,-3.01365 -0.5156,-3.14221 -0.127,-0.0312 0.23668,-0.0595 0.80818,-0.0628 0.69693,-0.004 0.95718,0.027 0.79034,0.0943 -0.21653,0.0873 -0.25916,0.22512 -0.32897,1.06326 -0.0441,0.5296 -0.0621,1.09162 -0.0399,1.24893 l 0.0403,0.28602 h 1.84727 1.84727 l 0.0183,-1.17806 c 0.0188,-1.21435 -0.0224,-1.33908 -0.4801,-1.45158 -0.127,-0.0312 0.23668,-0.062 0.80818,-0.0684 0.90867,-0.0102 1.00287,0.007 0.75046,0.1344 l -0.28864,0.14609 -0.0229,2.81498 c -0.013,1.60221 0.0242,2.90311 0.0866,3.01953 0.0602,0.11251 0.25237,0.2262 0.42702,0.25266 0.17465,0.0264 -0.17602,0.0518 -0.77927,0.0563 -0.60325,0.005 -1.01889,-0.0197 -0.92364,-0.0537 0.39651,-0.14171 0.46182,-0.41145 0.46182,-1.90753 v -1.4817 l -1.87614,0.0317 -1.87613,0.0317 0.0248,1.38545 c 0.0311,1.73774 0.0646,1.87693 0.46617,1.93779 0.17447,0.0264 -0.15037,0.0517 -0.72187,0.0563 -0.5715,0.005 -0.96116,-0.0215 -0.86591,-0.0577 z"
       id="path1591" />
    <path
       id="path1587"
       style="fill:#ffffff;stroke-width:0.115455;stroke:none;stroke-opacity:1;fill-opacity:1"
       d="m 159.10341,161.90333 c -2.2996,-0.57729 -3.12829,-3.61942 -1.50314,-5.51805 0.61876,-0.72287 1.30669,-1.00236 2.48452,-1.00939 0.84922,-0.005 1.07043,0.0379 1.64286,0.31897 1.19577,0.58719 1.76786,1.62703 1.68658,3.06552 -0.10549,1.86687 -1.44361,3.19807 -3.23747,3.22072 -0.39984,0.005 -0.88285,-0.0299 -1.07335,-0.0778 z m 2.22711,-0.45966 c 0.82097,-0.41901 1.17848,-1.07426 1.26358,-2.31599 0.14445,-2.10737 -0.87713,-3.49789 -2.5698,-3.49789 -0.95988,0 -1.59073,0.33984 -2.06962,1.11489 -0.30566,0.49467 -0.35303,0.68492 -0.37377,1.50091 -0.039,1.53352 0.50452,2.68403 1.50087,3.17721 0.63114,0.31242 1.65881,0.32195 2.24874,0.0209 z" />
    <path
       id="path1583"
       style="fill:#ffffff;stroke-width:0.115455;stroke:none;stroke-opacity:1;fill-opacity:1"
       d="m 151.13705,161.9007 c -0.9086,-0.2212 -1.90703,-1.15319 -2.15889,-2.01522 -0.37746,-1.2919 -0.067,-2.70301 0.78844,-3.58384 0.70245,-0.72329 1.22608,-0.92411 2.40954,-0.92411 1.12917,0 1.72368,0.20809 2.40626,0.84224 0.80181,0.74493 1.11228,2.19385 0.74055,3.45612 -0.30034,1.01983 -1.13664,1.86498 -2.11529,2.13765 -0.72452,0.20186 -1.47046,0.23326 -2.07061,0.0872 z m 2.16866,-0.4086 c 0.50068,-0.20919 1.04496,-0.84989 1.22092,-1.4372 0.0725,-0.24192 0.13128,-0.84946 0.13066,-1.35009 -0.002,-1.88206 -1.0091,-3.07502 -2.59509,-3.07502 -0.82931,0 -1.52762,0.30494 -1.90184,0.83049 -0.84758,1.19032 -0.70317,3.39626 0.29041,4.43592 0.67249,0.70369 1.95587,0.97156 2.85494,0.5959 z" />
    <path
       style="fill:#ffffff;stroke-width:0.115455;stroke:none;stroke-opacity:1;fill-opacity:1"
       d="m 136.20263,161.77331 c -0.88957,-0.31328 -1.60625,-0.94515 -1.94948,-1.7188 -0.2468,-0.55631 -0.27874,-0.76883 -0.23552,-1.56722 0.1203,-2.22222 1.55676,-3.33014 4.06161,-3.13266 1.00688,0.0794 1.64525,0.2156 1.59895,0.3412 -0.0159,0.0431 -0.0349,0.403 -0.0423,0.79987 -0.007,0.39688 -0.0363,0.61768 -0.0642,0.49068 -0.20616,-0.93689 -0.63119,-1.23153 -1.87986,-1.30316 -1.19453,-0.0685 -1.72053,0.095 -2.28901,0.71175 -0.53877,0.5845 -0.79027,1.48374 -0.66954,2.3939 0.27096,2.04261 2.12578,3.28792 4.05009,2.71919 0.37748,-0.11157 0.50839,-0.23119 0.71683,-0.65499 0.28693,-0.58339 0.3208,-0.50357 0.14136,0.33312 -0.10177,0.47454 -0.17949,0.59398 -0.44721,0.68731 -0.56932,0.19847 -2.30914,0.1402 -2.99176,-0.10019 z"
       id="path1581" />
    <path
       style="fill:#ffffff;stroke-width:0.115455;stroke:none;stroke-opacity:1;fill-opacity:1"
       d="m 129.74909,161.87949 c -0.3688,-0.10649 -0.37505,-0.11966 -0.36481,-0.76891 0.009,-0.6 0.0202,-0.62682 0.11687,-0.2926 0.16229,0.56094 0.60245,0.84499 1.3026,0.84064 0.32482,-0.002 0.6685,-0.067 0.76375,-0.14432 0.51413,-0.41754 0.5837,-1.3034 0.14606,-1.85978 -0.11783,-0.1498 -0.55526,-0.56167 -0.97205,-0.91526 -0.92425,-0.7841 -1.18443,-1.27363 -1.10672,-2.08234 0.0466,-0.48456 0.12121,-0.63981 0.4327,-0.89985 0.44241,-0.36934 1.05037,-0.49653 1.84861,-0.38674 l 0.57504,0.0791 -0.007,0.5953 c -0.006,0.51225 -0.0233,0.55536 -0.12153,0.30904 -0.21599,-0.54134 -0.44852,-0.6951 -1.05118,-0.6951 -0.72498,0 -0.96346,0.13321 -1.12732,0.62971 -0.19352,0.58638 0.0598,1.0167 1.13186,1.92276 0.49975,0.42236 0.99086,0.94869 1.10018,1.17906 0.77189,1.62663 -0.7463,3.0438 -2.66674,2.4893 z"
       id="path900" />
  </g>
</svg>
